<svg xmlns="http://www.w3.org/2000/svg" width="146.73" height="146.731" viewBox="0 0 146.73 146.731"><defs><style>.a,.b{fill:#fff;}.b,.c{stroke:#707070;}.c{fill:#231f20;}</style></defs><rect class="a" width="146.731" height="146.731" rx="5" transform="translate(0 0)"/><g transform="translate(6.553 6.553)"><g transform="translate(0 0)"><path class="b" d="M11.521,98.908C5.26,83.157,13.747,74.029,17.587,69.883l.362-.39c.445-.5.918-.974,1.419-1.447,3.228-3.172,7.263-7.124,6.985-27.216-.223-16.419,5.566-25.88,9.879-30.611H31.5c-1.837,1.224-12.439,8.655-12.189,18.061v1.948A51.789,51.789,0,0,1,18.7,42.778a17.393,17.393,0,0,1-.807,3.2l-.584,1.391a11.772,11.772,0,0,1-.612,1.169,15.5,15.5,0,0,1-1.614,2.31c-.584.724-1.224,1.308-1.781,1.92A15.509,15.509,0,0,1,11.437,54.3a13.527,13.527,0,0,1-1.809,1.2,11.436,11.436,0,0,1-1.67.946,22.568,22.568,0,0,1-2.783,1.252,23.018,23.018,0,0,1-2.56.751.278.278,0,0,1-.362-.223.278.278,0,0,1,0-.25h0A23.544,23.544,0,0,1,4.007,56c.584-.584,1.2-1.391,1.948-2.2s1.531-1.781,2.365-2.783a38.955,38.955,0,0,0,2.31-3.339,27.828,27.828,0,0,0,1.837-3.9c.25-.668.5-1.391.724-2.115a45.249,45.249,0,0,0,.557-11.41V28.308A24.656,24.656,0,0,1,22.263,10.08H14.777A71.658,71.658,0,0,0,5.009,35.125,37.039,37.039,0,0,1,0,49.29V99.826a35.063,35.063,0,0,0,11.521-.918" transform="translate(0 17.971)"/><path class="b" d="M0,10.08V30.923A77.029,77.029,0,0,1,8.154,10.08Z" transform="translate(0 17.971)"/><path class="b" d="M38.3,78.9a23.236,23.236,0,0,1-11.131,3.729h0a2.783,2.783,0,1,1,0-5.566h0a22.485,22.485,0,0,0,12.718-6.345c8.515-7.43,8.822-26.27,9.044-40.045v-.25A33.867,33.867,0,0,1,56.39,10.191H47.485c0,.139-9.183,13.719-6.9,27.3a31.974,31.974,0,0,1,.473,5.566v3.061a27.3,27.3,0,0,1-.445,2.783,21.845,21.845,0,0,1-1.781,4.759,16.7,16.7,0,0,1-1.169,1.976A18.282,18.282,0,0,1,35.13,58.7a17.5,17.5,0,0,1-2.365,1.92,10.8,10.8,0,0,1-2.338,1.224.306.306,0,0,1-.39-.223.39.39,0,0,1,0-.25s.5-.779,1.2-2.143c.334-.7.751-1.5,1.141-2.449s.807-2.031,1.2-3.172.668-2.449.974-3.757l.334-2.059a20.152,20.152,0,0,1,.278-2.171,15.746,15.746,0,0,1,.195-2.254.529.529,0,0,0,0-.223,26.631,26.631,0,0,0-.39-4.647c-2.031-11.938,3.005-23.07,5.983-28.413H35.38C33.237,11.666,22.579,20.6,22.83,40.691c.306,22.541-4.675,27.439-8.682,31.362l-1.03,1.2-.39.417C9.027,77.675.038,89.251,8.943,98.713a17.34,17.34,0,0,0,1.419,1.336l.39.334a25.491,25.491,0,0,0,16.28,5.9c9.406,0,15.306-3.506,17.81-8.933,4.341-10.185-3.84-16.7-6.6-18.45" transform="translate(9.145 17.971)"/><path class="b" d="M20.871,0H12.857l2.811,7.848H2.866L.083,0H0V18.422H27.439Z" transform="translate(0 0)"/><path class="b" d="M55.541,18.422,62.108,0h-7.9L51.422,7.848H38.649L41.46,0H33.417L26.85,18.422Z" transform="translate(47.869 0)"/><path class="b" d="M39.884,10.08a29.637,29.637,0,0,0-9.378,20.315v.25c-.25,15.667-.557,35.147-10.964,44.247l-.751.64A25.3,25.3,0,0,1,26.5,87.777l4.007,4.091S48.594,112.1,72.916,112.1c14.22,0,13.3-7.708,13.3-7.708a23.655,23.655,0,0,0-1.03-5.2c-.863-2.783-3.59-8.682-.612-13.3,0,0-5.232,0-5.566-1.113s5.566-.918,6.039-2.031a83.482,83.482,0,0,0-1.892-15.862s8.07,1,12.022-4.091L70.133,10.08ZM82.211,72.833c.529,3.256-2.477,4.035-4.981,4.647A9.378,9.378,0,0,0,73.5,78.816c-1.419,1.113-2.254,2.783-3.7,3.924a7.653,7.653,0,0,1-6.9,1.252c-5.4-1.475-7.208-7.18-8.71-11.688,3.005,2.087,7.208,5.093,12.022,3.284,4.48-3.9,13.914-9.768,16-2.783M74.474,32.844c-3.646,3.061-8.348,4.508-12.105,7.235,4.842,1.141,11.131,1.141,8.682,3.979-1.364,1.586-7.18.974-9.295.724a15.222,15.222,0,0,1-5.566-.863,2.171,2.171,0,0,1-.64-3.451,14.109,14.109,0,0,1,5.566-3.812c2.254-1.057,4.23-1.837,6.345-2.783a36.512,36.512,0,0,1,6.456-2.226,1.113,1.113,0,0,1,.807,1.085M67.74,21.824a20.064,20.064,0,0,0-10.018,1,7.736,7.736,0,0,0-3.284,2.365c-.835,1-1.391,2.171-2.783,2.56-.891-3.9,3.312-7.848,7.068-9.267s10.742-4.146,12.244,2.5c.529,2.338-2.143,1.113-3.479.974" transform="translate(33.499 17.971)"/><path class="b" d="M47.377,18.422,53.944,0H42.4L39.585,7.848H24.752L21.97,0H10.56l6.567,18.422Z" transform="translate(18.827 0)"/><path class="c" d="M32.275,7.848,35.086,0H14.66l2.783,7.848Z" transform="translate(26.136 0)"/><path class="c" d="M43.863,7.848,46.674,0H33.9L31.09,7.848Z" transform="translate(55.428 0)"/><path class="c" d="M109.977,0,103.41,18.422H74.719L81.286,0H72.771L66.2,18.422H35.954L29.387,0H20.871l6.567,18.422H0v9.629H8.154A77.029,77.029,0,0,0,0,48.894V67.261a37.513,37.513,0,0,0,4.981-14.22A71.657,71.657,0,0,1,14.749,28h7.514a24.656,24.656,0,0,0-8.627,18.283v1.948a44.942,44.942,0,0,1-.557,11.382c-.223.751-.473,1.475-.724,2.143a27.828,27.828,0,0,1-1.837,3.9,38.959,38.959,0,0,1-2.171,3.339c-.835,1-1.586,1.976-2.338,2.783s-1.391,1.614-1.976,2.2a23.544,23.544,0,0,0-1.753,1.976h0a.278.278,0,0,0,0,.25.278.278,0,0,0,.362.223,23.011,23.011,0,0,0,2.56-.751,20.954,20.954,0,0,0,2.783-1.252,11.437,11.437,0,0,0,1.67-.946,13.523,13.523,0,0,0,1.753-1.113c.584-.473,1.224-.946,1.864-1.531a16.9,16.9,0,0,0,1.781-1.92A15.5,15.5,0,0,0,16.7,66.51c.25-.417.5-.863.724-1.308s.362-.918.557-1.391a17.393,17.393,0,0,0,.807-3.2,51.789,51.789,0,0,0,.7-12.551V46.111c-.25-9.406,10.352-16.836,12.189-18.061h4.508C31.891,32.837,26.075,42.3,26.3,58.662c.278,20.092-3.757,24.044-6.985,27.216-.473.473-.974.946-1.419,1.447l-.362.39c-3.785,4.119-12.272,13.33-6.011,29.164A35.064,35.064,0,0,1,0,117.8v16.335H134.132V0ZM54.042,115.32c-2.477,5.566-8.348,8.933-17.81,8.933a25.491,25.491,0,0,1-16.474-5.983l-.278-.334a17.336,17.336,0,0,1-1.419-1.336c-8.905-9.378,0-20.955,3.785-25.045l.417-.306c.39-.445.807-.835,1.224-1.252,4.007-3.924,8.989-8.822,8.682-31.362-.25-20.064,10.408-29,12.578-30.611h5.343c-2.783,5.287-7.931,16.7-5.927,28.329a26.632,26.632,0,0,1,.362,4.675v.195c0,.751-.167,1.5-.223,2.226s-.223,1.447-.278,2.171l-.334,2.059c-.306,1.308-.612,2.588-.974,3.757a29.3,29.3,0,0,1-1.2,3.172c-.417.946-.807,1.753-1.141,2.449-.7,1.364-1.2,2.143-1.2,2.143a.445.445,0,0,0,0,.278.334.334,0,0,0,.39.195,10.8,10.8,0,0,0,2.338-1.224,17.5,17.5,0,0,0,2.365-1.92,18.283,18.283,0,0,0,2.532-3.061A21.846,21.846,0,0,0,48,71.491c.362-.7.64-1.475.974-2.254a23.85,23.85,0,0,0,.779-2.5c.195-.863.334-1.781.473-2.783a18.569,18.569,0,0,0,0-2.783.779.779,0,0,0,0-.25,32.085,32.085,0,0,0-.473-5.566c-2.449-13.608,6.734-27.077,6.818-27.216h9.072a33.867,33.867,0,0,0-7.458,20.231v.25c-.195,13.775-.529,32.615-9.016,40.073a22.569,22.569,0,0,1-12.745,6.317h0a2.783,2.783,0,1,0,0,5.566h0a23.237,23.237,0,0,0,11.131-3.729c2.783,1.837,10.937,8.348,6.6,18.45m62.725-30.444a83.484,83.484,0,0,1,1.892,15.862c-.529,1.113-6.206,1-6.011,2.031s5.4,1.113,5.4,1.113c-2.978,4.647-.25,10.658.612,13.3a24.738,24.738,0,0,1,1.057,5.287s.891,7.708-13.33,7.708C82.177,130.069,64,109.838,64,109.838L60,105.747A25.3,25.3,0,0,0,52.206,93.42l.751-.64C63.365,83.763,63.671,64.283,64,48.616v-.25a29.637,29.637,0,0,1,9.434-20.315h30.333l25.045,52.707c-3.868,5.093-11.938,4.091-11.938,4.091" transform="translate(0 0)"/><path class="c" d="M37.643,22.859a14.109,14.109,0,0,0-5.315,3.757,2.171,2.171,0,0,0,.807,3.4,15.222,15.222,0,0,0,5.566.863c2.115.25,7.931.863,9.295-.724,2.393-2.783-3.84-2.783-8.655-3.979C43.1,23.388,47.689,22,51.418,18.935a1.113,1.113,0,0,0-.807-1.085,36.511,36.511,0,0,0-6.456,2.226c-2.115.89-4.091,1.67-6.345,2.783" transform="translate(56.723 31.823)"/><path class="c" d="M15.614,7.848,12.8,0H.03L2.813,7.848Z" transform="translate(0.053 0)"/><path class="c" d="M37.666,14.3c-3.757,1.419-7.959,5.371-7.068,9.267,1.364-.39,1.92-1.558,2.783-2.56a7.736,7.736,0,0,1,3.284-2.365,20.064,20.064,0,0,1,10.018-1c1.336.139,4.007,1.364,3.479-.974-1.531-6.623-8.822-3.7-12.467-2.365" transform="translate(54.334 22.27)"/><path class="c" d="M31.51,34.195c1.5,4.508,3.312,10.213,8.71,11.688a7.653,7.653,0,0,0,6.9-1.252c1.475-1.085,2.282-2.783,3.7-3.924a9.378,9.378,0,0,1,3.729-1.336c2.5-.612,5.566-1.391,4.981-4.647-2.143-7.013-11.521-1.141-16,2.783-4.814,1.809-9.016-1.2-12.022-3.284" transform="translate(56.177 56.08)"/></g></g></svg>