<svg xmlns="http://www.w3.org/2000/svg" width="24.012" height="25" viewBox="0 0 24.012 25"><defs><style>.a{fill:#00c0cd;}</style></defs><g transform="translate(-12.195 -10.641)"><path class="a" d="M30.391,43.833c.076,0,.153,0,.228.006V41.094H12.2v8.857a1.056,1.056,0,0,0,1.057,1.057H23.632c-.01-.13-.012-.267-.012-.4a6.777,6.777,0,0,1,6.771-6.771ZM18.062,47.7H14.607V42.782h3.455Zm5.38,0H19.986V42.782h3.455Z" transform="translate(-0.003 -20.782)"/><path class="a" d="M30.616,14.663a1.059,1.059,0,0,0-1.061-1.057H28.208V12a1.363,1.363,0,0,0-2.727,0v1.6H17.33V12A1.363,1.363,0,1,0,14.6,12v1.6H13.252A1.056,1.056,0,0,0,12.2,14.663v4.7h18.42Z" transform="translate(0)"/><path class="a" d="M57.207,52.725c-.076-.006-.153-.006-.228-.006a5.819,5.819,0,0,0-5.818,5.818c0,.136,0,.27.012.4a5.819,5.819,0,1,0,6.034-6.215ZM59.1,60.658a.474.474,0,0,1-.337.139.484.484,0,0,1-.337-.139l-1.784-1.785a.477.477,0,0,1-.139-.337V55.46a.476.476,0,0,1,.953,0v2.878L59.1,59.983A.478.478,0,0,1,59.1,60.658Z" transform="translate(-26.59 -28.714)"/></g></svg>