<svg xmlns="http://www.w3.org/2000/svg" width="84" height="84" viewBox="0 0 84 84"><defs><style>.a{fill:#4f7ed7;}</style></defs><path class="a" d="M70.168,324.687,69.1,335.938H58.258l-1.336-14.032c-2.3-.287-4.745-.512-7.33-.66l-2.173,22.821H36.581l-2.173-22.819q-3.876.221-7.33.66l-1.336,14.031H14.9l-1.072-11.251C4.746,327.594,0,331.839,0,335.938c0,7.225,14.721,14.9,42,14.9s42-7.678,42-14.9C84,331.839,79.254,327.594,70.168,324.687Zm0,0" transform="translate(0 -266.842)"/><path d="M101.231,20.888,95.677,19.3v-2.42a8.1,8.1,0,0,0,2.71-6.043V8.129a8.129,8.129,0,1,0-16.258,0v2.71a8.105,8.105,0,0,0,2.71,6.043V19.3l-5.554,1.586a5.44,5.44,0,0,0-3.93,5.211v1.719L74,27.43V25.01a8.1,8.1,0,0,0,2.71-6.043v-2.71a8.129,8.129,0,0,0-16.258,0v2.71a8.105,8.105,0,0,0,2.71,6.043v2.42l-1.355.388V26.1a5.441,5.441,0,0,0-3.93-5.211L52.323,19.3v-2.42a8.1,8.1,0,0,0,2.71-6.043V8.129a8.129,8.129,0,0,0-16.258,0v2.71a8.106,8.106,0,0,0,2.71,6.043V19.3L35.93,20.888A5.44,5.44,0,0,0,32,26.1V42a4.07,4.07,0,0,0,4.065,4.065,4.013,4.013,0,0,0,1.823-.451l2.365,24.838h13.3l1.637-17.185a3.947,3.947,0,0,0,4.373.476l2.365,24.838h13.3L77.6,53.742a3.947,3.947,0,0,0,4.373-.476l1.637,17.185h13.3l2.365-24.838a4.013,4.013,0,0,0,1.823.451A4.07,4.07,0,0,0,105.161,42V26.1A5.44,5.44,0,0,0,101.231,20.888ZM84.839,8.129a5.419,5.419,0,1,1,10.839,0v2.71a5.419,5.419,0,1,1-10.839,0Zm5.419,10.839a8.089,8.089,0,0,0,2.71-.474v1.455a2.989,2.989,0,0,1-5.419,0V18.493A8.089,8.089,0,0,0,90.258,18.968Zm-27.1-2.71a5.419,5.419,0,1,1,10.839,0v2.71a5.419,5.419,0,1,1-10.839,0ZM68.581,27.1a8.089,8.089,0,0,0,2.71-.474v1.455a2.988,2.988,0,0,1-5.419,0V26.622A8.089,8.089,0,0,0,68.581,27.1ZM41.484,8.129a5.419,5.419,0,0,1,10.839,0v2.71a5.419,5.419,0,0,1-10.839,0ZM46.9,18.968a8.089,8.089,0,0,0,2.71-.474v1.455a3.464,3.464,0,0,1-2.71,1.729,3.464,3.464,0,0,1-2.71-1.729V18.493A8.089,8.089,0,0,0,46.9,18.968ZM36.065,43.355A1.357,1.357,0,0,1,34.71,42V26.1a2.723,2.723,0,0,1,1.965-2.606L42.256,21.9a5.582,5.582,0,0,0,9.293,0l5.581,1.594A2.722,2.722,0,0,1,59.1,26.1v2.493l-1.489.425a5.294,5.294,0,0,0-1.221.539v-1.1h-2.71V39.29H40.129V28.452h-2.71V42A1.357,1.357,0,0,1,36.065,43.355ZM40.263,42h5.285V67.742H42.716Zm7.995,25.742V42h5.285L51.091,67.742ZM61.941,50.129h5.285V75.871H64.393Zm7.995,25.742V50.129h5.285L72.768,75.871ZM80.774,50.129a1.355,1.355,0,1,1-2.71,0V36.581h-2.71V47.419H61.806V36.581H59.1V50.129a1.355,1.355,0,1,1-2.71,0v-15.9a2.723,2.723,0,0,1,1.965-2.606l5.581-1.594a5.582,5.582,0,0,0,9.293,0l5.581,1.594a2.722,2.722,0,0,1,1.965,2.606v15.9ZM83.618,42H88.9V67.742H86.071Zm7.995,25.742V42H96.9L94.446,67.742ZM102.452,42a1.355,1.355,0,1,1-2.71,0V28.452h-2.71V39.29H83.484V28.452h-2.71v1.1a5.294,5.294,0,0,0-1.221-.539l-1.489-.425V26.1a2.723,2.723,0,0,1,1.965-2.606L85.611,21.9a5.582,5.582,0,0,0,9.293,0l5.581,1.594A2.722,2.722,0,0,1,102.45,26.1V42Zm0,0" transform="translate(-26.581)"/></svg>