<svg xmlns="http://www.w3.org/2000/svg" width="84" height="84" viewBox="0 0 84 84"><defs><style>.a{fill:#4f7ed7;}</style></defs><path d="M78.694,204.141l-6.888-1.531v-1.98a9.474,9.474,0,0,0,4.065-7.771v-2.71a9.49,9.49,0,0,0-8.129-9.375v-6.445l-14.4-5.759-1.007,2.516,12.7,5.076v4.611a9.49,9.49,0,0,0-8.129,9.375v2.71a9.47,9.47,0,0,0,4.065,7.771v1.979l-6.774,1.506-6.774-1.506v-1.979a9.474,9.474,0,0,0,4.065-7.771v-2.71a9.49,9.49,0,0,0-8.129-9.375V173.89h-2.71v6.883a9.49,9.49,0,0,0-8.129,9.375v2.71a9.47,9.47,0,0,0,4.065,7.771v1.979l-6.774,1.506-6.774-1.506v-1.979a9.474,9.474,0,0,0,4.065-7.771v-2.71a9.49,9.49,0,0,0-8.129-9.375v-4.611l12.7-5.079-1.007-2.517-14.4,5.761v6.445a9.49,9.49,0,0,0-8.129,9.375v2.71a9.47,9.47,0,0,0,4.065,7.771v1.979L5.306,204.14A6.735,6.735,0,0,0,0,210.752v13.267H84V210.752A6.732,6.732,0,0,0,78.694,204.141ZM59.613,192.858v-2.71a6.774,6.774,0,1,1,13.548,0v2.71a6.774,6.774,0,0,1-13.548,0Zm6.774,9.484a9.426,9.426,0,0,0,2.71-.4v1.381a2.989,2.989,0,0,1-5.419,0v-1.381A9.472,9.472,0,0,0,66.387,202.341Zm-31.161-9.484v-2.71a6.774,6.774,0,1,1,13.548,0v2.71a6.774,6.774,0,0,1-13.548,0ZM42,202.341a9.426,9.426,0,0,0,2.71-.4v1.381A3.461,3.461,0,0,1,42,205.051a3.467,3.467,0,0,1-2.71-1.727v-1.381A9.472,9.472,0,0,0,42,202.341Zm-4.685,2.88a5.592,5.592,0,0,0,9.37,0l7.036,1.563a4.04,4.04,0,0,1,3.183,3.967v10.557H27.1V210.752a4.042,4.042,0,0,1,3.183-3.969ZM10.839,192.858v-2.71a6.774,6.774,0,1,1,13.548,0v2.71a6.774,6.774,0,0,1-13.548,0Zm6.774,9.484a9.426,9.426,0,0,0,2.71-.4v1.381a3.461,3.461,0,0,1-2.71,1.729,3.464,3.464,0,0,1-2.71-1.727v-1.382A9.426,9.426,0,0,0,17.613,202.341Zm-14.9,8.411a4.042,4.042,0,0,1,3.183-3.969l7.036-1.563a5.921,5.921,0,0,0,4.685,2.54,5.924,5.924,0,0,0,4.685-2.539l3.956.879a6.722,6.722,0,0,0-1.867,4.651v10.557H2.71ZM81.29,221.309H59.613V210.752a6.726,6.726,0,0,0-1.867-4.653l3.956-.879a5.591,5.591,0,0,0,9.37,0l7.036,1.563a4.04,4.04,0,0,1,3.183,3.967Zm0,0" transform="translate(0 -140.019)"/><path class="a" d="M165.432,35.226h-7.64l-.686-3.42a14.685,14.685,0,0,1-2.345-.973l-2.9,1.936-5.4-5.4,1.936-2.9a14.91,14.91,0,0,1-.973-2.345L144,21.432V13.792l3.42-.686a14.683,14.683,0,0,1,.973-2.345l-1.936-2.9,5.4-5.4,2.9,1.936a14.912,14.912,0,0,1,2.345-.973L157.794,0h7.639l.686,3.42a14.685,14.685,0,0,1,2.345.973l2.9-1.936,5.4,5.4-1.936,2.9a14.913,14.913,0,0,1,.973,2.345l3.419.687v7.639l-3.419.686a14.687,14.687,0,0,1-.973,2.345l1.936,2.9-5.4,5.4-2.9-1.936a14.912,14.912,0,0,1-2.345.973Zm0,0" transform="translate(-119.613)"/><path d="M240,80h2.71v2.71H240Zm0,0" transform="translate(-199.355 -66.452)"/><path d="M201.484,48a9.484,9.484,0,1,0,9.484,9.484A9.495,9.495,0,0,0,201.484,48Zm1.355,16.121V58.839h-2.71v5.282a6.774,6.774,0,1,1,2.71,0Zm0,0" transform="translate(-159.484 -39.871)"/><path d="M384,56h2.71v2.71H384Zm0,0" transform="translate(-318.968 -46.516)"/><path d="M384,104h2.71v2.71H384Zm0,0" transform="translate(-318.968 -86.387)"/><path d="M384,152h2.71v2.71H384Zm0,0" transform="translate(-318.968 -126.258)"/><path d="M416,104h2.71v2.71H416Zm0,0" transform="translate(-345.548 -86.387)"/><path d="M416,152h2.71v2.71H416Zm0,0" transform="translate(-345.548 -126.258)"/><path d="M416,200h2.71v2.71H416Zm0,0" transform="translate(-345.548 -166.129)"/><path d="M96,56h2.71v2.71H96Zm0,0" transform="translate(-79.742 -46.516)"/><path d="M96,104h2.71v2.71H96Zm0,0" transform="translate(-79.742 -86.387)"/><path d="M96,152h2.71v2.71H96Zm0,0" transform="translate(-79.742 -126.258)"/><path d="M64,104h2.71v2.71H64Zm0,0" transform="translate(-53.161 -86.387)"/><path d="M64,152h2.71v2.71H64Zm0,0" transform="translate(-53.161 -126.258)"/><path d="M64,200h2.71v2.71H64Zm0,0" transform="translate(-53.161 -166.129)"/></svg>