<svg xmlns="http://www.w3.org/2000/svg" xmlns:xlink="http://www.w3.org/1999/xlink" width="830.141" height="652.552" viewBox="0 0 830.141 652.552"><defs><style>.a{fill:#ebf5ff;}.b{fill:#748498;}.c{fill:#132039;}.d{fill:#fff;}.e{fill:#72aecc;}.f{fill:#9ccbe8;}.g{fill:#cee8f4;}.h{fill:#9cb3e5;}.i{fill:#cedcf2;}.j{fill:#ff494a;}.k{fill:#ffd374;}.l{fill:#62d067;}.m{fill:#84b4fd;}.n{fill:#00c0cd;}.o{fill:#009daf;}.p{fill:#c9dfee;}.q{fill:#ffbda1;}.r{fill:#241c2b;}.s{fill:#03345f;}.t{clip-path:url(#a);}.u{fill:#ffd474;}</style><clipPath id="a"><path d="M167.83,96.614a19.283,19.283,0,1,0,14.03-23.384A19.253,19.253,0,0,0,167.83,96.614Z" transform="translate(-167.268 -72.668)"/></clipPath></defs><g transform="translate(-574.555 -94.963)"><g transform="translate(574.555 146.104)"><path class="a" d="M8.9,172.385c0,29.8,22.059,44.7,50.814,44.7s54.753-21.172,54.753-50.97-32.3-57.243-59.874-49.4C24.262,125.336,8.9,142.587,8.9,172.385Z" transform="translate(25.553 336.863)"/><path class="a" d="M184,146.259c0,22.208,16.444,33.312,37.88,33.312S262.7,163.791,262.7,141.583s-24.078-42.663-44.633-36.818C195.158,111.193,184,124.051,184,146.259Z" transform="translate(567.445 328.693)"/><path class="a" d="M184,164.552c0,31.766,25.668,47.649,59.129,47.649s63.713-22.57,63.713-54.336S269.256,96.84,237.17,105.2C201.418,114.4,184,132.786,184,164.552Z" transform="translate(496.427 -139.641)"/><path class="a" d="M719.389,500.872c-8.533,17.494-40.961,85.761-118.188,120.748-16.214,7.253-93.441,42.667-158.3,10.667-85.761-42.24-58.454-157.015-138.668-214.189-68.694-49.067-143.362,41.814-225.709-3.413C35.435,391.217,1.3,340.444.021,295.216-3.392,153.562,314.051-84.948,547.44,30.68,717.255,114.308,787.656,358.364,719.389,500.872Z" transform="translate(0.006 -51.153)"/></g><g transform="translate(669 168)"><path class="b" d="M384.112,78.242,279.042,526.006a13.981,13.981,0,0,1-16.811,10.511L27.574,481.159a13.986,13.986,0,0,1-10.507-16.817L122.137,16.578A13.981,13.981,0,0,1,138.948,6.067L373.6,61.424A13.987,13.987,0,0,1,384.112,78.242Z" transform="translate(-16.693 -5.693)"/><path class="c" d="M387.312,79.042,282.242,526.806a13.981,13.981,0,0,1-16.811,10.511L30.774,481.959a13.986,13.986,0,0,1-10.507-16.817L125.337,17.378A13.981,13.981,0,0,1,142.148,6.867L376.805,62.224C384.51,63.626,389.063,71.334,387.312,79.042Z" transform="translate(-8.686 -3.69)"/><path class="d" d="M332.425,70.862,301.6,201.2,261.328,373.576h0l-9.456,39.591-10.507,44.146a7.369,7.369,0,0,1-9.106,5.606l-81.6-19.27L35.777,416.67a7.372,7.372,0,0,1-5.6-9.109l91.061-386.8a7.162,7.162,0,0,1,1.751-3.153,7.609,7.609,0,0,1,7.705-2.453l97.015,22.774,12.258,2.8L292.5,52.994l34.673,8.058C331.024,62.8,333.476,66.658,332.425,70.862Z" transform="translate(16.431 17.453)"/><g transform="translate(131.686 468.083)"><path class="d" d="M64.475,165.245h0a13.169,13.169,0,0,1-9.807-15.766h0a13.163,13.163,0,0,1,15.761-9.81h0a13.169,13.169,0,0,1,9.807,15.766h0C78.835,162.442,71.83,166.647,64.475,165.245Z" transform="translate(-54.293 -139.293)"/></g><path class="e" d="M119.5,83.695l-.7-.35L128.957,40.6l.7.35a1.921,1.921,0,0,1,1.4,2.1l-9.106,39.241C121.252,83.344,120.551,84.045,119.5,83.695Z" transform="translate(238.812 81.7)"/><path class="e" d="M116.2,97.695l-.7-.35L125.657,54.6l.7.35a1.921,1.921,0,0,1,1.4,2.1l-9.106,39.241C117.952,97.344,117.251,98.045,116.2,97.695Z" transform="translate(230.554 116.751)"/><g transform="translate(175.728 94.508)"><path class="f" d="M205.323,57.306,102,33.131A15.662,15.662,0,0,0,83.092,44.693l-15.761,67.27a15.668,15.668,0,0,0,11.558,18.92l10.157,2.453S98.152,153.656,102,160.313c2.452,4.555,9.106,6.307,13.309,3.153,6.3-4.2,23.466-18.569,23.466-18.569l43.429,10.161A15.662,15.662,0,0,0,201.12,143.5l15.761-67.27A15.668,15.668,0,0,0,205.323,57.306Z" transform="translate(-66.868 -32.668)"/><path class="g" d="M164.169,69.241,80.463,49.621a5.016,5.016,0,0,1,2.1-9.81l83.706,19.62a5.016,5.016,0,0,1-2.1,9.81Z" transform="translate(-42.875 -15.172)"/><path class="g" d="M162.569,76.041,78.863,56.421a5.016,5.016,0,0,1,2.1-9.81l83.706,19.62a5.033,5.033,0,0,1,3.853,5.956A4.872,4.872,0,0,1,162.569,76.041Z" transform="translate(-46.879 1.853)"/><path class="g" d="M115.088,71.88,77.263,63.121a5.016,5.016,0,0,1,2.1-9.81l37.825,8.759a5.033,5.033,0,0,1,3.853,5.956A4.872,4.872,0,0,1,115.088,71.88Z" transform="translate(-50.882 18.627)"/></g><g transform="translate(168.527 349.026)"><path class="f" d="M157.582,122.088,88.236,105.621a10.441,10.441,0,0,0-12.608,7.708l-10.507,45.2a10.445,10.445,0,0,0,7.705,12.613l6.654,1.752s6.3,13.664,8.756,18.219a6.374,6.374,0,0,0,9.106,2.1c4.2-2.8,15.761-12.263,15.761-12.263l29.069,7.007a10.441,10.441,0,0,0,12.608-7.708l10.507-45.2A10.148,10.148,0,0,0,157.582,122.088Z" transform="translate(-64.812 -105.312)"/></g><g transform="translate(94.473 217.135)"><path class="h" d="M72.85,68.131,176.169,92.306a15.668,15.668,0,0,1,11.558,18.92l-9.807,41.343a15.662,15.662,0,0,1-18.913,11.562l-10.157-2.453s-17.512,14.014-23.466,18.569a9.305,9.305,0,0,1-13.309-3.153c-3.5-6.657-12.959-26.978-12.959-26.978L55.689,139.956a15.668,15.668,0,0,1-11.558-18.92l9.807-41.343A15.662,15.662,0,0,1,72.85,68.131Z" transform="translate(-43.668 -67.668)"/><path class="i" d="M139.369,103.641,55.663,84.021a5.016,5.016,0,0,1,2.1-9.81l83.706,19.62a5.033,5.033,0,0,1,3.853,5.956A4.724,4.724,0,0,1,139.369,103.641Z" transform="translate(-23.679 -51.674)"/><path class="i" d="M104.988,102.58,67.163,93.821a5.016,5.016,0,0,1,2.1-9.81l37.825,8.759a5.033,5.033,0,0,1,3.853,5.956C110.242,101.178,107.79,103.28,104.988,102.58Z" transform="translate(5.098 -27.138)"/></g><path class="d" d="M83.434,113.187l-8.055,34.336a2.679,2.679,0,0,0,4.2,2.8l21.364-13.314A2.819,2.819,0,0,0,102,133.158L88.687,111.786A3.253,3.253,0,0,0,83.434,113.187Z" transform="translate(129.882 257.871)"/><g transform="translate(145.13 44.566)"><path class="j" d="M44.034,129.462a5.169,5.169,0,1,1-3.875-6.2C43,124.036,44.809,126.878,44.034,129.462Z" transform="translate(-33.862 -123.162)"/><path class="k" d="M49.534,130.762a5.169,5.169,0,1,1-3.875-6.2C48.5,125.336,50.309,128.178,49.534,130.762Z" transform="translate(-25.155 -121.103)"/><path class="l" d="M55.034,132.062a5.169,5.169,0,1,1-3.875-6.2C54,126.636,55.809,129.478,55.034,132.062Z" transform="translate(-16.448 -119.043)"/></g><g transform="translate(233.819 39.648) rotate(13)"><path class="m" d="M35.5,0H-12.509a2.255,2.255,0,0,0-2.254,2.254,2.255,2.255,0,0,0,2.254,2.257H35.5A2.256,2.256,0,0,0,35.5,0" transform="translate(14.763)"/></g><g transform="translate(225.541 38.13) rotate(13)"><circle class="m" cx="2" cy="2" r="2" transform="translate(-2.107 -0.057)"/></g><path class="f" d="M155.943,28.617a1.7,1.7,0,0,1-2.1,1.051L93.6,15.3a1.921,1.921,0,0,1-1.4-2.1,1.921,1.921,0,0,1,2.1-1.4l60.24,14.365a1.993,1.993,0,0,1,1.4,2.453Z" transform="translate(172.25 9.596)"/><path class="f" d="M133.663,23.207a1.7,1.7,0,0,1-2.1,1.051L115.1,20.4a1.921,1.921,0,0,1-1.4-2.1,1.921,1.921,0,0,1,2.1-1.4l16.461,3.854a2.346,2.346,0,0,1,1.4,2.453Z" transform="translate(226.05 22.364)"/></g><g transform="translate(1027.15 139.207)"><path class="d" d="M85.307,25.623H-34.249s8.762-35.91,39.68-35.91c22.913,0,34.8,14.49,39.428,22C53.9,8.176,73.351,3.889,85.307,25.623" transform="translate(34.249 10.287)"/></g><g transform="translate(36 -8)"><g transform="translate(1239.001 304.116)"><path class="n" d="M6.006,72.124l-.064,0c8-8.377,4.241-17.634,2.79-20.453-.006,0-.006-.009-.009-.015-.28-.541-.482-.866-.482-.866l.07.015a33.75,33.75,0,0,1,6.22-39.128C20.138,4.244,15.9-5.642,15.9-5.642h.012a23.833,23.833,0,0,1-1.378-7.938,23.865,23.865,0,0,1,23.84-23.89A23.863,23.863,0,0,1,62.209-13.58a23.833,23.833,0,0,1-1.378,7.938h.015S56.6,4.244,62.209,11.679A33.75,33.75,0,0,1,68.434,50.8l.02,0s-.038.067-.105.173c-.187.374-.379.746-.584,1.111-1.5,3.1-4.381,11.375,2.215,19.134.2.243.412.477.61.72.058.064.1.132.166.2h-.02a41.5,41.5,0,1,1-64.732,0" transform="translate(3.13 37.47)"/></g><g transform="translate(1265.493 351.181)"><path class="o" d="M1.845,52.962,12.011,63.038V27.63L-.472,15.255a1.65,1.65,0,0,1,2.317-2.349L12.011,22.982V-25.865a1.647,1.647,0,0,1,1.649-1.65,1.648,1.648,0,0,1,1.649,1.65V3.573L25.2-6.278a1.644,1.644,0,0,1,2.329.009,1.649,1.649,0,0,1-.006,2.334L15.309,8.232V43.8L26.231,32.737a1.651,1.651,0,1,1,2.347,2.322L15.309,48.493v94.346a1.649,1.649,0,1,1-3.3,0V67.685L-.472,55.31a1.65,1.65,0,0,1,2.317-2.349" transform="translate(0.962 27.515)"/></g><g transform="translate(1243.929 521.986)"><path class="p" d="M35.665,2.06H-17.026A1.561,1.561,0,0,1-18.588.495,1.561,1.561,0,0,1-17.026-1.07H35.665a1.565,1.565,0,0,1,0,3.13" transform="translate(18.588 1.07)"/></g></g><g transform="translate(968.988 313.157)"><g transform="translate(67.305 391.842)"><path class="q" d="M166.25,189.236l16.156-.85-.425-28.486-16.581.85Z" transform="translate(-139.89 -159.9)"/><path class="r" d="M159.4,184.857l42.516-.85-.425-18.707-25.935.425c-8.928.425-16.156,8.928-16.156,19.132Z" transform="translate(-159.4 -142.341)"/></g><g transform="translate(138.733 391.842)"><path class="q" d="M192.356,188.811l-16.156-.425V159.9l16.581.85Z" transform="translate(-176.2 -159.9)"/><path class="r" d="M218.716,184.432l-42.516-.425V165.3h25.935c8.928.425,16.581,8.928,16.581,19.132Z" transform="translate(-176.2 -142.341)"/></g><path class="s" d="M236.078,147.767,163.8,146.492l1.7-43.367,69.3-.425Z" transform="translate(-77.787 45.948)"/><path class="s" d="M201.834,108.676l-3.4,59.523-1.7,29.761c-.425,5.1,0,9.779-.425,14.881v14.881l.425,119.9H164.42l-1.275-120.746V211.566c0-5.1-.425-10.2,0-15.306l1.7-30.187,3.4-60.373Z" transform="translate(-80.533 55.703)"/><path class="s" d="M180.578,347.743l-4.252-142a18.415,18.415,0,0,0-.425-2.126l-3.4-92.686,34.438-5.527,2.551,95.662,3.827,146.681Z" transform="translate(-49.498 54.728)"/><path class="q" d="M163.682,76.082c.85,5.527-2.551,11.054-8.078,11.9s-11.054-2.551-11.9-8.078,2.551-11.054,8.078-11.9C156.879,66.728,162.406,70.13,163.682,76.082Z" transform="translate(-143.57 -67.737)"/><path class="q" d="M186.031,87.178l2.126,23.384H170.3l.425-31.462Z" transform="translate(-56.652 -30.79)"/><g transform="translate(97.572 20.962)"><path class="q" d="M167.714,77.726l4.252-2.126,2.551,5.952-4.252,1.276-2.976-1.7A2,2,0,0,1,167.714,77.726Z" transform="translate(-166.519 -63.133)"/><g transform="translate(3.184)"><path class="q" d="M167.83,96.614a19.283,19.283,0,1,0,14.03-23.384A19.253,19.253,0,0,0,167.83,96.614Z" transform="translate(-167.268 -72.668)"/><g class="t"><path class="r" d="M170.2,71.4l23.384,45.918,8.078-32.738Z" transform="translate(-157.733 -76.79)"/></g></g><path class="q" d="M172.767,82.445c.85,2.976,3.826,4.677,6.377,3.826s4.677-3.826,3.826-6.377c-.85-2.976-3.826-4.677-6.377-3.826A4.874,4.874,0,0,0,172.767,82.445Z" transform="translate(-146.913 -62.325)"/></g><path class="u" d="M231.174,85.525l-59.1-.425c-5.527,0-9.779,5.1-9.354,11.054l2.551,59.523c.425,5.527,4.252,10.2,9.354,10.2l59.1-.425c4.677,0,8.5-3.826,9.354-8.928l2.551-48.469C248.18,93.178,240.1,85.525,231.174,85.525Z" transform="translate(-81.387 -11.28)"/><path class="u" d="M184.365,129.422,161.407,71.6,144.4,75.426l20.833,64.625a8.158,8.158,0,0,0,7.228,6.378h.85l58.247,9.354L233.684,129Z" transform="translate(-140.869 -55.177)"/><g transform="translate(147.661 79.772)"><path class="q" d="M203.156,130.778c-1.7,5.527-7.653,8.078-13.18,6.377s-8.078-7.653-6.377-13.18,7.653-8.078,13.18-6.377A10.444,10.444,0,0,1,203.156,130.778Z" transform="translate(-162.765 12.927)"/><path class="u" d="M206.361,144.747l-4.677,72.7,17.007,3.4,8.928-75.679c0-5.1-1.7-7.653-2.976-10.2l-.85-1.275L191.48,86.5,178.3,109.884Z" transform="translate(-178.3 -86.5)"/></g></g></g></svg>