<svg xmlns="http://www.w3.org/2000/svg" xmlns:xlink="http://www.w3.org/1999/xlink" width="949.119" height="900.3" viewBox="0 0 949.119 900.3"><defs><style>.a{fill:#ebf5ff;}.b{fill:#d7e8f7;}.c{fill:#cadfef;}.d{fill:#fff;}.e{fill:#214a81;}.f{fill:#ff494a;}.g{fill:#ffd374;}.h{fill:#62d067;}.i{fill:#bbb;}.j{fill:#ffd474;}.k{fill:#84b4fe;}.l{fill:#ffbda1;}.m{fill:#edba5f;}.n{fill:#1e1a1e;}.o{fill:#03345f;}.p{clip-path:url(#a);}.q{fill:#072042;}.r{fill:#00c0cd;}.s,.u{fill:none;stroke-linecap:round;stroke-linejoin:round;stroke-miterlimit:10;}.s{stroke:#fff;stroke-width:1.361px;}.t{fill:#009db0;}.u{stroke:#009db0;stroke-width:0.998px;}.v{fill:#01052a;}</style><clipPath id="a"><path d="M63.278,104.443A18.225,18.225,0,1,1,48.143,83.581C57.96,84.808,64.914,94.216,63.278,104.443Z" transform="translate(-27.042 -83.342)"/></clipPath></defs><g transform="translate(-491.381)"><path class="a" d="M607.051,0S418.19,55.887,431.359,286.5,268.194,555.019,165.412,606.41C66.485,655.873-15.74,726.857,2.568,900.3H949.12V0Z" transform="translate(491.381)"/><g transform="translate(18263.152 4066.003)"><rect class="b" width="432.741" height="291.178" transform="translate(-17441.262 -3804.108) rotate(-0.34)"/><path class="c" d="M619.975,145.05,33.525,148.4a1.525,1.525,0,1,1,0-3.05L619.975,142a1.525,1.525,0,1,1,0,3.05Z" transform="translate(-17494.973 -3658.017)"/><rect class="d" width="402.741" height="271.178" transform="translate(-17426.203 -3794.197) rotate(-0.34)"/><path class="e" d="M459.631,37.5,47.412,39.94A10.353,10.353,0,0,0,37.3,50.309V68l432.741-2.745V47.564A10.551,10.551,0,0,0,459.631,37.5Z" transform="translate(-17478.619 -3872.207)"/><g transform="translate(-17415.701 -3825.451)"><path class="f" d="M57.289,46.794a5.79,5.79,0,0,1-5.794,5.794A5.608,5.608,0,0,1,45.7,46.794,5.79,5.79,0,0,1,51.494,41,6,6,0,0,1,57.289,46.794Z" transform="translate(-45.7 -39.582)"/><path class="g" d="M62.789,46.794A5.794,5.794,0,1,1,56.994,41,5.79,5.79,0,0,1,62.789,46.794Z" transform="translate(-34.427 -39.582)"/><ellipse class="h" cx="5.794" cy="5.794" rx="5.794" ry="5.794" transform="matrix(0.259, -0.966, 0.966, 0.259, 32.23, 11.195)"/></g><g transform="translate(-17388.865 -3680.06)"><path class="i" d="M83.167,112.846H59.684a5.082,5.082,0,0,1-5.184-4.879V84.484A5.082,5.082,0,0,1,59.379,79.3H82.862a5.082,5.082,0,0,1,5.184,4.879v23.482A5.082,5.082,0,0,1,83.167,112.846Z" transform="translate(-54.5 -77.47)"/><path class="i" d="M103.267,112.746H79.784a5.082,5.082,0,0,1-5.184-4.879V84.384A5.082,5.082,0,0,1,79.479,79.2h23.482a5.082,5.082,0,0,1,5.184,4.879v23.482A5.082,5.082,0,0,1,103.267,112.746Z" transform="translate(-15.501 -77.675)"/><path class="j" d="M123.367,112.646H99.884a5.082,5.082,0,0,1-5.184-4.879V84.284A5.082,5.082,0,0,1,99.579,79.1h23.482a5.082,5.082,0,0,1,5.184,4.879v23.482A5.082,5.082,0,0,1,123.367,112.646Z" transform="translate(23.498 -77.88)"/><path class="i" d="M143.467,112.446H119.984a5.082,5.082,0,0,1-5.184-4.879V84.084a5.082,5.082,0,0,1,4.879-5.184h23.482a5.082,5.082,0,0,1,5.184,4.879v23.482A4.9,4.9,0,0,1,143.467,112.446Z" transform="translate(62.497 -78.29)"/><path class="i" d="M163.567,112.346H140.084a5.082,5.082,0,0,1-5.184-4.879V83.984a5.082,5.082,0,0,1,4.879-5.184h23.482a5.082,5.082,0,0,1,5.184,4.879v23.482A4.9,4.9,0,0,1,163.567,112.346Z" transform="translate(101.497 -78.495)"/><path class="i" d="M183.567,112.246H160.084a5.082,5.082,0,0,1-5.184-4.879V83.884a5.082,5.082,0,0,1,4.879-5.184h23.482a5.082,5.082,0,0,1,5.184,4.879v23.482A4.716,4.716,0,0,1,183.567,112.246Z" transform="translate(140.301 -78.7)"/></g><path class="k" d="M91.953,71.849H80.974A4.491,4.491,0,0,1,76.4,67.274h0A4.491,4.491,0,0,1,80.974,62.7H91.953a4.491,4.491,0,0,1,4.575,4.574h0C96.223,70.019,94.393,71.849,91.953,71.849Z" transform="translate(-17401.555 -3820.555)"/><path class="k" d="M72.153,71.949H61.174A4.491,4.491,0,0,1,56.6,67.375h0A4.491,4.491,0,0,1,61.174,62.8H72.153a4.491,4.491,0,0,1,4.574,4.575h0A4.491,4.491,0,0,1,72.153,71.949Z" transform="translate(-17439.061 -3820.35)"/><path class="k" d="M152.753,133.449H141.775a4.491,4.491,0,0,1-4.575-4.574h0a4.491,4.491,0,0,1,4.575-4.574h10.979a4.491,4.491,0,0,1,4.574,4.574h0C157.023,131.619,155.193,133.449,152.753,133.449Z" transform="translate(-17281.723 -3694.296)"/><path class="k" d="M172.953,133.349H161.975a4.491,4.491,0,0,1-4.575-4.574h0a4.491,4.491,0,0,1,4.575-4.575h10.979a4.491,4.491,0,0,1,4.574,4.575h0A4.69,4.69,0,0,1,172.953,133.349Z" transform="translate(-17243.439 -3694.501)"/><path class="k" d="M132.953,133.549H121.974a4.491,4.491,0,0,1-4.574-4.575h0a4.491,4.491,0,0,1,4.574-4.574h10.979a4.491,4.491,0,0,1,4.575,4.574h0A4.491,4.491,0,0,1,132.953,133.549Z" transform="translate(-17320.748 -3694.091)"/></g><g transform="translate(1018 86.4)"><path class="d" d="M199.566,25.915l-87.766.691S118.02.346,140.825,0A33.152,33.152,0,0,1,169.85,15.895c6.565-2.419,20.732-5.874,29.716,10.021" transform="translate(-111.8)"/><g transform="translate(188.317 50.103)"><path class="d" d="M189.8,35.923a22.979,22.979,0,0,1,11.748,3.11,38.1,38.1,0,0,1,33.172-19.7,39.158,39.158,0,0,1,32.135,16.931A29.642,29.642,0,0,1,295.185,14.5c15.2,0,27.988,11.748,29.716,26.952a14.174,14.174,0,0,1,3.8-.346,23.967,23.967,0,0,1,21.423,13.13L166.3,55.273C168.719,44.216,178.394,35.923,189.8,35.923Z" transform="translate(-166.3 -14.5)"/></g></g><g transform="translate(658.902 342.2)"><g transform="translate(0 0)"><path class="l" d="M68.98,108.1,44.436,118.736,42.8,131.008l27.407-7.772Z" transform="translate(132.279 15.98)"/><path class="m" d="M56.025,178.885a5.189,5.189,0,0,0,2.454-.409l52.769-11.045-5.318-24.544-39.679,8.181L52.753,98.3,27.8,102.391,43.344,168.25a11.313,11.313,0,0,0,5.318,8.181A11.421,11.421,0,0,0,56.025,178.885Z" transform="translate(85.92 -14.308)"/><ellipse class="l" cx="11.045" cy="11.045" rx="11.045" ry="11.045" transform="translate(194.714 122.853)"/><g transform="translate(143.172 378.108)"><path class="l" d="M36.227,203.334C36.227,202.107,35,170.2,35,170.2H51.772l1.636,33.134Z" transform="translate(-35 -170.2)"/><path class="n" d="M82.451,191.126,35,191.535V176.809l32.725-.409a14.665,14.665,0,0,1,14.726,14.726Z" transform="translate(-35 -151.038)"/></g><g transform="translate(0 354.792)"><path class="l" d="M1.3,191.5c.818-.818,19.226-27,19.226-27l13.5,10.227L14.8,202.134Z" transform="translate(4.018 -164.5)"/><path class="n" d="M38.043,209.588,0,180.954,8.59,169.5l26.18,19.635a14.9,14.9,0,0,1,3.273,20.453Z" transform="translate(0 -149.047)"/></g><g transform="translate(11.454 0)"><path class="o" d="M73.633,116.2c.409,9.408,1.227,18.817,2.045,27.816l2.454,27.816c.818,9.408,1.636,18.408,2.454,27.816l2.863,27.816v31.089c0,9.817,0,19.635.409,29.453l.409,29.453c.409,9.818.409,19.635.818,29.453L53.18,348.139l-1.227-29.453-1.636-29.044c-.409-9.817-1.227-19.635-1.636-29.043l-1.636-29.044v1.636l-4.909-27.407c-1.636-9-3.273-18.408-4.909-27.407L32.318,150.97c-1.636-9-3.682-18.408-5.318-27.407Z" transform="translate(71.993 41.014)"/><path class="o" d="M118.565,122.227l-18.408,103.9-.409,1.227a16.141,16.141,0,0,1-2.454,6.136L29.8,335.758l-27-17.181L66.614,214.266l-2.863,7.363L71.932,116.5Z" transform="translate(-2.8 41.941)"/><path class="j" d="M28.028,96.227,93.069,95c5.318,0,9.818,4.091,9.408,9.408L101.25,178.04a9.515,9.515,0,0,1-9.408,9.408l-59.314,1.227a9.165,9.165,0,0,1-9.408-9l-4.5-73.631A9.352,9.352,0,0,1,28.028,96.227Z" transform="translate(46.012 -24.507)"/><path class="l" d="M44.353,92.936l.409,19.226L28.4,108.89,30.854,91.3Z" transform="translate(76.32 -35.943)"/><g transform="translate(75.132)"><path class="l" d="M41.245,87.536l-4.5-1.636L34.7,91.627l4.091.818L41.245,90.4C42.881,89.582,42.881,87.945,41.245,87.536Z" transform="translate(20.659 -52.632)"/><g transform="translate(24.031 22.803)"><path class="l" d="M63.278,104.443A18.225,18.225,0,1,1,48.143,83.581C57.96,84.808,64.914,94.216,63.278,104.443Z" transform="translate(-27.042 -83.342)"/><g class="p"><path class="q" d="M68.94,92.2h0a14.757,14.757,0,0,0-19.226-9.408H48.487l-22.5,14.317s-3.273,16.363,4.909,16.363c14.726-.409,18.817-8.59,19.226-16.363Z" transform="translate(-32.294 -87.867)"/></g></g><path class="l" d="M38.455,92.864c-.409,2.863-2.863,4.909-5.727,4.091-2.863-.409-4.909-2.863-4.091-5.727.409-2.863,2.863-4.909,5.727-4.091A5.352,5.352,0,0,1,38.455,92.864Z" transform="translate(1.36 -49.37)"/><ellipse class="q" cx="17.999" cy="17.999" rx="17.999" ry="17.999" transform="translate(0 1.95) rotate(-3.105)"/></g><path class="l" d="M26.4,95.509,59.534,95.1S57.9,107.372,43.172,107.781C28.036,107.781,26.4,95.509,26.4,95.509Z" transform="translate(70.139 -24.198)"/></g><g transform="translate(69.898 80.719)"><path class="l" d="M63.234,106.349a10.542,10.542,0,0,0-14.317,3.272,11.628,11.628,0,0,0-1.636,4.909L34.6,123.121l.818,11.454,19.226-9.817A10.5,10.5,0,0,0,66.1,120.667,10.358,10.358,0,0,0,63.234,106.349Z" transform="translate(37.038 -74.852)"/><path class="j" d="M29,189.539a13.79,13.79,0,0,1-6.954-2.045,11.406,11.406,0,0,1-4.909-10.227L23.275,97.5h22.5l-4.091,62.178L95.27,135.134l9.818,21.271L33.911,188.721A20.533,20.533,0,0,1,29,189.539Z" transform="translate(-17.087 -97.5)"/></g></g><g transform="translate(169.392 43.17)"><path class="r" d="M121.622,185.375l-58.948.71A11.218,11.218,0,0,1,51.31,174.722l-.71-58.948A11.218,11.218,0,0,1,61.963,104.41l58.948-.71a11.218,11.218,0,0,1,11.363,11.363l.71,58.948A11.218,11.218,0,0,1,121.622,185.375Z" transform="translate(-50.6 -103.7)"/><path class="s" d="M53.5,122.615l12.074,10.653L93.983,107.7" transform="translate(-32.904 -79.291)"/></g></g><g transform="translate(1330.129 381)"><path class="t" d="M221.687,163.16s-37.8-16.019-18.773-91.86C202.914,71.3,247.468,107.343,221.687,163.16Z" transform="translate(-197.562 -51.526)"/><path class="r" d="M215.942,175.034s-42.3-50.06,22.527-111.634C238.469,63.4,277.015,147.751,215.942,175.034Z" transform="translate(-190.315 -63.4)"/><g transform="translate(21.122 19.523)"><line class="u" y1="97.116" x2="18.522" transform="translate(4.505)"/><line class="u" y1="4.505" x2="14.017" transform="translate(17.271 26.031)"/><line class="u" y1="4.505" x2="14.017" transform="translate(10.513 61.574)"/><line class="u" x1="13.266" y1="14.517" transform="translate(0 36.544)"/></g><path class="v" d="M227.31,106.5l-24.279.25a1.6,1.6,0,0,0-1.5,2l5.006,27.533a1.586,1.586,0,0,0,1.5,1.251h16.019a1.443,1.443,0,0,0,1.5-1.5l3.254-27.533A1.517,1.517,0,0,0,227.31,106.5Z" transform="translate(-191.671 1.379)"/></g></g></svg>