<svg xmlns="http://www.w3.org/2000/svg" xmlns:xlink="http://www.w3.org/1999/xlink" width="1082.781" height="911.205" viewBox="0 0 1082.781 911.205"><defs><style>.a{fill:none;}.b{fill:#ebf5ff;}.c{fill:#00c0cd;}.d{fill:#009daf;}.e{fill:#c9dfee;}.f{fill:#fff;}.g{fill:#f5bca3;}.h{fill:#ecb95f;}.i{fill:#db9c9d;}.j{fill:#1e1a1e;}.k{fill:#132039;}.l{fill:#f7c769;}.m{fill:#ffbca0;}.n{clip-path:url(#a);}.o{fill:#ffd374;}.p{fill:#84b4fd;}.q{fill:#9ccbe8;}.r{fill:#ff494a;}.s{fill:#62d067;}.t{fill:#4f7ed7;}</style><clipPath id="a"><path class="a" d="M283.9-290.873a19.631,19.631,0,0,0-16,22.692h0a19.636,19.636,0,0,0,22.7,16h0a19.637,19.637,0,0,0,16-22.7h0a19.642,19.642,0,0,0-19.321-16.291h0a19.638,19.638,0,0,0-3.371.292" transform="translate(-267.602 291.165)"/></clipPath></defs><g transform="translate(-357.219 11.205)"><g transform="translate(357.219)"><path class="b" d="M0,646.3s230.09-33.29,135.349-299.608,67.671-278.8,205.277-245.512,232.344,45.773,259.415-54.1,63.16-363.627,482.74-303.06V646.3Z" transform="translate(0 253.7)"/></g><g transform="translate(40)"><g transform="translate(1239.001 304.116)"><path class="c" d="M7.8,93.329l-.077,0c9.572-10,5.072-21.046,3.337-24.411-.007,0-.007-.01-.01-.017-.335-.646-.576-1.033-.576-1.033l.084.017a40.216,40.216,0,0,1,7.439-46.7C24.7,12.315,19.626.517,19.626.517h.014a28.392,28.392,0,0,1-1.648-9.474A28.513,28.513,0,0,1,46.505-37.47,28.51,28.51,0,0,1,75.014-8.957,28.392,28.392,0,0,1,73.367.517h.017s-5.076,11.8,1.63,20.672A40.215,40.215,0,0,1,82.46,67.875l.024,0s-.045.08-.126.206c-.223.447-.454.89-.7,1.326-1.791,3.7-5.24,13.576,2.649,22.837.241.29.492.569.73.859.07.077.122.157.2.234h-.024A49.621,49.621,0,1,1-3.13,124.355,49.4,49.4,0,0,1,7.8,93.329" transform="translate(3.13 37.47)"/></g><g transform="translate(1270.685 360.288)"><path class="d" d="M2.4,68.534,14.554,80.559V38.3L-.376,23.531a1.971,1.971,0,0,1,2.772-2.8L14.554,32.753v-58.3a1.967,1.967,0,0,1,1.972-1.969A1.969,1.969,0,0,1,18.5-25.546V9.588L30.322-2.168a1.969,1.969,0,0,1,2.786.01A1.966,1.966,0,0,1,33.1.628L18.5,15.149V57.594l13.062-13.2a1.972,1.972,0,1,1,2.807,2.772L18.5,63.2V175.8a1.972,1.972,0,0,1-3.945,0v-89.7L-.376,71.337a1.971,1.971,0,0,1,2.772-2.8" transform="translate(0.962 27.515)"/></g><g transform="translate(1244.895 564.143)"><path class="e" d="M46.3,2.665H-16.72A1.865,1.865,0,0,1-18.588.8,1.865,1.865,0,0,1-16.72-1.07H46.3a1.868,1.868,0,1,1,0,3.735" transform="translate(18.588 1.07)"/></g></g><g transform="translate(1265.15 190.207)"><path class="f" d="M85.307,25.623H-34.249s8.762-35.91,39.68-35.91c22.913,0,34.8,14.49,39.428,22C53.9,8.176,73.351,3.889,85.307,25.623" transform="translate(34.249 10.287)"/></g><g transform="translate(24.861 -20)"><g transform="translate(652.367 386.611)"><path class="g" d="M.781,0l24.55,10.239,1.627,12.212L-.359,14.842Z" transform="translate(0.359)"/></g><g transform="translate(666.177 332.751)"><path class="h" d="M37.459,63.961a12.258,12.258,0,0,1-2.468-.251l-52.2-10.579,4.94-24.376,39.443,7.99L37.481-29.383l24.576,3.831L49.747,53.437A12.434,12.434,0,0,1,37.459,63.961" transform="translate(17.208 29.383)"/></g><g transform="translate(724.346 653.14)"><path class="i" d="M12.632,24.441c-.238-1.379.775-35.669.775-35.669L-4.8-11.053l-1,35.691Z" transform="translate(5.803 11.228)"/></g><g transform="translate(693.431 681.088)"><path class="j" d="M0,10.867l50.819-.26-.149-15.6-35.091.181A15.626,15.626,0,0,0,0,10.867" transform="translate(0 4.992)"/></g><g transform="translate(856.064 626.059)"><path class="i" d="M24.282,19.715c-1.029-.95-21.1-28.772-21.1-28.772L-11.155,2.167,9.777,31.088Z" transform="translate(11.155 9.057)"/></g><g transform="translate(854.042 647.898)"><path class="j" d="M2.233,29.759,42.395-1.386,32.782-13.671,5.051,7.836A15.631,15.631,0,0,0,2.233,29.759" transform="translate(1.026 13.671)"/></g><g transform="translate(757.037 420.793)"><path class="k" d="M34.233,0,44.6,108.431l-3.012-7.961,70.049,111.1L83.019,230.354,8.929,121.91a17.446,17.446,0,0,1-2.719-6.452l-.289-1.509L-15.726,7.132Z" transform="translate(15.726)"/></g><g transform="translate(716.538 420.793)"><path class="k" d="M40.267,4.079C36.531,23.807,33.179,39.1,29.882,58.886,28.163,68.769,26.7,78.677,25.11,88.579l-4.683,29.7.13-1.947-1.452,31.4c-.457,10.468-1.036,20.935-1.363,31.4-.794,20.935-1.531,41.877-1.887,62.821l-34.221-.619c.407-20.945.432-41.9.4-62.853.057-10.471-.146-20.951-.219-31.431L-18.5,115.62l.016-.505.118-1.442,2.4-29.976c.772-9.991,1.671-19.973,2.316-29.983,1.43-20,2.805-35.536,3.8-55.588Z" transform="translate(18.498 1.874)"/></g><g transform="translate(720.693 323.413)"><path class="l" d="M50.429,0H-13.043A10.122,10.122,0,0,0-23.162,10.436l2.443,83.522A10.119,10.119,0,0,0-10.6,103.771h63.7A10.125,10.125,0,0,0,63.206,94.11l3.336-77.238A16.13,16.13,0,0,0,50.429,0" transform="translate(23.167)"/></g><g transform="translate(750.245 306.496)"><path class="g" d="M0,1.193V22.071l17.167-4L14.15-.548Z" transform="translate(0 0.548)"/></g><g transform="translate(730.784 283.199)"><path class="m" d="M.839,1.132,5.481-.52,7.67,5.6l-4.441.769-2.834-2A1.845,1.845,0,0,1,.839,1.132" transform="translate(0.386 0.52)"/></g><g transform="translate(733.782 271.453)"><path class="g" d="M.2,15.75a19.636,19.636,0,1,0,16-22.7,19.634,19.634,0,0,0-16,22.7" transform="translate(0.092 7.235)"/></g><g class="n" transform="translate(733.78 271.455)"><g transform="translate(19.491 -5.076)"><path class="k" d="M1.323,0S-9.624,32.518,20.613,32.524c8.6,0,4.918-17.52,4.918-17.52Z" transform="translate(0.608)"/></g><g transform="translate(-0.553 -5.994)"><path class="k" d="M15.373,11.343-7.062,5.8-4.343-5.211,18.092.333Z" transform="translate(7.062 5.211)"/></g></g><g transform="translate(756.093 287.649)"><path class="g" d="M.055,4.412A5.5,5.5,0,1,0,4.538-1.945,5.5,5.5,0,0,0,.055,4.412" transform="translate(0.025 2.027)"/></g><g transform="translate(758.484 259.93)"><path class="k" d="M10.152,13.859A13.354,13.354,0,1,0-7.45,7.017a13.353,13.353,0,0,0,17.6,6.842" transform="translate(8.585 11.72)"/></g><g transform="translate(740.677 323.385)"><path class="g" d="M24.411,0-11.214.029S-9.422,13.314,6.7,13.314,24.411,0,24.411,0" transform="translate(11.214)"/></g><g transform="translate(680.009 364.976)"><path class="g" d="M1.255,11.7a11,11,0,1,0,3.1-15.252A11.006,11.006,0,0,0,1.255,11.7" transform="translate(0.577 5.377)"/></g><g transform="translate(689.705 369.781)"><path class="g" d="M2.545,0,24.932,14.366,24.4,26.673-1.169,14.416Z" transform="translate(1.169)"/></g><g transform="translate(667.941 360.762)"><path class="g" d="M18.8,9.343A3.257,3.257,0,0,1,17.569,9.1L2.635,3.221l-8.244-.81A3.351,3.351,0,0,1-8.62-1.259,3.306,3.306,0,0,1-4.954-4.27l8.714.851a3.337,3.337,0,0,1,.905.219L20.038,2.862A3.358,3.358,0,0,1,18.8,9.343" transform="translate(8.637 4.292)"/></g><g transform="translate(615.539 354.955)"><path class="k" d="M48.4,27.406,8.447-11.634a3.38,3.38,0,0,0-2.554-.95l-27,1.655a1.2,1.2,0,0,0-.766,2.059l37.9,36.915a4.47,4.47,0,0,0,3.091,1.268l28.429.152a1.2,1.2,0,0,0,.845-2.059" transform="translate(22.234 12.59)"/></g><g transform="translate(642.024 379.399)"><path class="g" d="M2.076,12.736A11,11,0,1,0,2.469-2.82a11.005,11.005,0,0,0-.394,15.557" transform="translate(0.953 5.851)"/></g><g transform="translate(698.164 324.671)"><path class="o" d="M57.459,67.627a12.519,12.519,0,0,1-4.791-.959L-26.4,42.657-16.818,19.7,48.116,37.816,60.35-20.958A12.439,12.439,0,0,1,74.9-30.845a12.44,12.44,0,0,1,9.889,14.55L69.677,57.518A12.44,12.44,0,0,1,57.459,67.627" transform="translate(26.396 31.067)"/></g></g><g transform="translate(50.697 12.69)"><g transform="translate(956.991 645.92)"><path class="e" d="M244.851-1.037H-130.366A1.481,1.481,0,0,0-131.849.446a1.483,1.483,0,0,0,1.483,1.48H244.851a1.481,1.481,0,1,0,0-2.963" transform="translate(131.849 1.037)"/></g><g transform="translate(911.133 145.81)"><path class="k" d="M166.793,0H-34.967A34.39,34.39,0,0,0-69.356,34.393V468.039a34.388,34.388,0,0,0,34.389,34.393h201.76a34.391,34.391,0,0,0,34.393-34.393V34.393A34.393,34.393,0,0,0,166.793,0" transform="translate(69.356)"/><g transform="translate(108.004 441.413)"><path class="f" d="M14.737,29.472A20.863,20.863,0,1,1,35.6,8.607,20.889,20.889,0,0,1,14.737,29.472" transform="translate(6.128 12.255)"/></g><g transform="translate(109.808 19.997)"><path class="p" d="M35.5,0H-12.509a2.255,2.255,0,0,0-2.254,2.254,2.255,2.255,0,0,0,2.254,2.257H35.5A2.256,2.256,0,0,0,35.5,0" transform="translate(14.763)"/></g><g transform="translate(98.048 19.244)"><path class="p" d="M2.124,4.253A2.994,2.994,0,0,1,.006,3.368,3.407,3.407,0,0,1-.369,2.9a2.492,2.492,0,0,1-.286-.511,3.072,3.072,0,0,1-.167-.555,3.886,3.886,0,0,1-.061-.589,3.8,3.8,0,0,1,.061-.6A4.088,4.088,0,0,1-.641.089,3.065,3.065,0,0,1-.369-.435,2.524,2.524,0,0,1,.006-.888a2.822,2.822,0,0,1,.449-.375,3.464,3.464,0,0,1,.524-.269,3.56,3.56,0,0,1,.558-.18,3.08,3.08,0,0,1,1.171,0,3.605,3.605,0,0,1,.572.18,3.326,3.326,0,0,1,.511.269,3.746,3.746,0,0,1,.466.375,3.531,3.531,0,0,1,.375.453A2.825,2.825,0,0,1,4.9.089a2.54,2.54,0,0,1,.167.558,2.487,2.487,0,0,1,.061.6,3.844,3.844,0,0,1-.044.589,3.421,3.421,0,0,1-.184.555,2.432,2.432,0,0,1-.269.511,3.685,3.685,0,0,1-.375.466,3.746,3.746,0,0,1-.466.375,3.674,3.674,0,0,1-.511.272,3.6,3.6,0,0,1-.572.177,3.589,3.589,0,0,1-.586.061" transform="translate(0.883 1.769)"/></g><path class="f" d="M548.62,63.8H320.925V-314.542H548.62Z" transform="translate(-300.955 358.611)"/><g transform="translate(66.397 183.348)"><path class="b" d="M93.312,46.657A66.056,66.056,0,1,1,27.257-19.4,66.059,66.059,0,0,1,93.312,46.657" transform="translate(38.801 19.401)"/></g><path class="q" d="M548.62-276.09H320.925v-38.451H548.62Z" transform="translate(-300.955 358.614)"/><g transform="translate(39.129 53.408)"><path class="r" d="M9.507,4.754A6.73,6.73,0,1,1,2.775-1.977,6.731,6.731,0,0,1,9.507,4.754" transform="translate(3.953 1.977)"/></g><g transform="translate(60.592 53.408)"><path class="o" d="M9.509,4.754A6.731,6.731,0,1,1,2.774-1.977,6.734,6.734,0,0,1,9.509,4.754" transform="translate(3.954 1.977)"/></g><g transform="translate(82.059 53.408)"><path class="s" d="M9.507,4.754A6.73,6.73,0,1,1,2.775-1.977,6.731,6.731,0,0,1,9.507,4.754" transform="translate(3.953 1.977)"/></g><path class="t" d="M48,63H9.6V54.6H48Zm0-16.8H9.6V37.8H48Zm0-16.8H9.6V21H48ZM0,84l4.8-6.3L9.6,84l4.8-6.3L19.2,84,24,77.7,28.8,84l4.8-6.3L38.4,84l4.8-6.3L48,84l4.8-6.3L57.6,84V0L52.8,6.3,48,0,43.2,6.3,38.4,0,33.6,6.3,28.8,0,24,6.3,19.2,0,14.4,6.3,9.6,0,4.8,6.3,0,0Z" transform="translate(120.326 200.148) rotate(20)"/></g></g></g></svg>