<svg xmlns="http://www.w3.org/2000/svg" width="84" height="84" viewBox="0 0 84 84"><defs><style>.a{fill:#4f7ed7;}</style></defs><path class="a" d="M234.452,114.516H208V96h26.452Zm0,0" transform="translate(-172.375 -79.629)"/><path class="a" d="M154.452,242.516H128V224h26.452Zm0,0" transform="translate(-106.077 -185.801)"/><path d="M81.29,70.452V25.742a6.782,6.782,0,0,0-6.774-6.774H67.742V0H16.258V18.968H9.484A6.782,6.782,0,0,0,2.71,25.742v44.71H0v6.774A6.782,6.782,0,0,0,6.774,84H77.226A6.782,6.782,0,0,0,84,77.226V70.452ZM74.516,21.677a4.07,4.07,0,0,1,4.065,4.065v44.71h-2.71V27.1a2.712,2.712,0,0,0-2.71-2.71H67.742v-2.71ZM29.806,73.161H54.194v1.355a1.357,1.357,0,0,1-1.355,1.355H31.161a1.357,1.357,0,0,1-1.355-1.355Zm-18.968-2.71V27.1h5.419V62.323H67.742V27.1h5.419V70.452Zm8.129-56.9H65.032V59.613H18.968ZM65.032,2.71v8.129H18.968V2.71ZM5.419,25.742a4.07,4.07,0,0,1,4.065-4.065h6.774v2.71H10.839a2.712,2.712,0,0,0-2.71,2.71V70.452H5.419ZM81.29,77.226a4.07,4.07,0,0,1-4.065,4.065H6.774A4.07,4.07,0,0,1,2.71,77.226V73.161H27.1v1.355a4.07,4.07,0,0,0,4.065,4.065H52.839A4.07,4.07,0,0,0,56.9,74.516V73.161H81.29Zm0,0"/><path d="M48,448h2.645v2.645H48Zm0,0" transform="translate(-40.065 -371.935)"/><path d="M80,448h2.645v2.645H80Zm0,0" transform="translate(-66.774 -371.935)"/><path d="M112,448h2.645v2.645H112Zm0,0" transform="translate(-93.017 -371.935)"/><path d="M128,32h2.645v2.645H128Zm0,0" transform="translate(-106.305 -26.71)"/><path d="M160,32h2.645v2.645H160Zm0,0" transform="translate(-132.882 -26.71)"/><path d="M192,32h2.645v2.645H192Zm0,0" transform="translate(-159.458 -26.71)"/><path d="M128,96h10.581v2.645H128Zm0,0" transform="translate(-106.246 -79.729)"/><path d="M128,128h10.581v2.645H128Zm0,0" transform="translate(-106.246 -106.305)"/><path d="M128,160h10.581v2.645H128Zm0,0" transform="translate(-106.246 -132.882)"/><path d="M128,192h10.581v2.645H128Zm0,0" transform="translate(-106.246 -159.458)"/><path d="M304,224h10.581v2.645H304Zm0,0" transform="translate(-252.335 -186.034)"/><path d="M304,256h10.581v2.645H304Zm0,0" transform="translate(-252.335 -212.611)"/><path d="M304,288h10.581v2.645H304Zm0,0" transform="translate(-252.335 -239.187)"/><path d="M304,320h10.581v2.645H304Zm0,0" transform="translate(-252.335 -265.763)"/></svg>