<svg xmlns="http://www.w3.org/2000/svg" width="84" height="84" viewBox="0 0 84 84"><defs><style>.a{fill:#4f7ed7;}</style></defs><path d="M48.774,25.082V6.774A6.782,6.782,0,0,0,42,0H6.774A6.782,6.782,0,0,0,0,6.774V77.226A6.782,6.782,0,0,0,6.774,84H42a6.782,6.782,0,0,0,6.774-6.774V58.919h-2.71V70.452H2.71V10.839H46.065V25.082Zm-2.71,48.079v4.065A4.07,4.07,0,0,1,42,81.29H6.774A4.07,4.07,0,0,1,2.71,77.226V73.161ZM2.71,8.129V6.774A4.07,4.07,0,0,1,6.774,2.71H42a4.07,4.07,0,0,1,4.065,4.065V8.129Zm0,0"/><path d="M104,448h13.548v2.71H104Zm0,0" transform="translate(-86.387 -372.129)"/><path d="M68.414,145.952l-7.633-8.033-2.055,1.238a17.418,17.418,0,0,0-2.062-.848L56.093,136H45.842l-.57,2.309a17.419,17.419,0,0,0-2.062.848l-2.031-1.224-7.247,7.247,1.224,2.031a17.542,17.542,0,0,0-.847,2.062L32,149.842v10.251l2.307.57a17.778,17.778,0,0,0,.848,2.062l-1.224,2.031L41.179,172l2.031-1.224a17.634,17.634,0,0,0,2.062.847l.57,2.309H56.093l.57-2.309a17.634,17.634,0,0,0,2.062-.847l2.055,1.237,7.633-8.027-1.963-1.869-6.135,6.453-1.506-.909-.684.374a14.693,14.693,0,0,1-2.973,1.223l-.749.218-.433,1.745H47.964l-.431-1.744-.749-.218a14.735,14.735,0,0,1-2.973-1.223l-.684-.374-1.531.923-4.249-4.249.923-1.531-.375-.684a14.78,14.78,0,0,1-1.222-2.973l-.218-.749-1.745-.433v-6.007l1.744-.433.218-.748a14.782,14.782,0,0,1,1.223-2.973l.374-.684-.923-1.531,4.249-4.249,1.531.923.684-.375a14.769,14.769,0,0,1,2.973-1.223l.749-.218.433-1.744h6.007l.431,1.744.749.218a14.737,14.737,0,0,1,2.973,1.223l.684.375,1.506-.908,6.134,6.456Zm0,0" transform="translate(-26.581 -112.968)"/><path d="M90.839,184a10.839,10.839,0,1,0,10.839,10.839A10.851,10.851,0,0,0,90.839,184Zm0,18.968a8.129,8.129,0,1,1,8.129-8.129A8.137,8.137,0,0,1,90.839,202.968Zm0,0" transform="translate(-66.452 -152.839)"/><path class="a" d="M247.032,158.065a23.032,23.032,0,1,1,23.032-23.032A23.058,23.058,0,0,1,247.032,158.065Zm0,0" transform="translate(-186.065 -93.032)"/><path d="M340.065,152.129a4.065,4.065,0,1,1,4.065-4.065A4.07,4.07,0,0,1,340.065,152.129Zm0-5.419a1.355,1.355,0,1,0,1.355,1.355A1.357,1.357,0,0,0,340.065,146.71Zm0,0" transform="translate(-279.097 -119.613)"/><path d="M333.548,232.387H320v-8.129h2.71v-8.129H320V208h10.839v16.258h2.71Zm-10.839-2.71h8.129v-2.71h-2.71V210.71H322.71v2.71h2.71v13.548h-2.71Zm0,0" transform="translate(-265.806 -172.774)"/></svg>