<svg xmlns="http://www.w3.org/2000/svg" width="84" height="84" viewBox="0 0 84 84"><defs><style>.a{fill:#4f7ed7;}.b{fill:#fff;}</style></defs><path class="a" d="M133.806,126.9A14.9,14.9,0,1,1,118.9,112,14.9,14.9,0,0,1,133.806,126.9Zm0,0" transform="translate(-86.387 -93.032)"/><path class="b" d="M165.419,146.968a2.712,2.712,0,0,1-2.71-2.71H160a5.414,5.414,0,0,0,4.065,5.227v2.9h2.71v-2.9a5.408,5.408,0,0,0-1.355-10.646,2.71,2.71,0,1,1,2.71-2.71h2.71a5.414,5.414,0,0,0-4.065-5.227V128h-2.71v2.9a5.408,5.408,0,0,0,1.355,10.646,2.71,2.71,0,1,1,0,5.419Zm0,0" transform="translate(-132.903 -106.323)"/><path d="M240,32h18.968v2.71H240Zm0,0" transform="translate(-199.355 -26.581)"/><path d="M192,64h27.1v2.71H192Zm0,0" transform="translate(-159.484 -53.161)"/><path d="M84,59.613V48.774H65.032V0h-53.4L0,11.633V75.871H16.258V84H46.065V75.871h5.419V84H81.29V75.871H84V65.032H81.29V59.613ZM81.29,56.9H56.9V51.484h2.71v2.71h2.71v-2.71h2.71v2.71h2.71v-2.71h2.71v2.71h2.71v-2.71h2.71v2.71h2.71v-2.71h2.71ZM56.9,48.774H8.129V18.968H56.9ZM10.839,4.626v6.213H4.626ZM43.355,81.29H18.968V75.871h2.71v2.71h2.71v-2.71H27.1v2.71h2.71v-2.71h2.71v2.71h2.71v-2.71h2.71v2.71h2.71v-2.71h2.71Zm2.71-8.129H21.677V67.742h2.71v2.71H27.1v-2.71h2.71v2.71h2.71v-2.71h2.71v2.71h2.71v-2.71h2.71v2.71h2.71v-2.71h2.71Zm5.419,0h-2.71V65.032H18.968v8.129H2.71V13.548H13.548V2.71H62.323V48.774h-2.71V16.258H5.419V51.484H54.194V56.9h-2.71V67.742h2.71v5.419Zm27.1,8.129H54.194V75.871H56.9v2.71h2.71v-2.71h2.71v2.71h2.71v-2.71h2.71v2.71h2.71v-2.71h2.71v2.71h2.71v-2.71h2.71Zm2.71-8.129H56.9V67.742h2.71v2.71h2.71v-2.71h2.71v2.71h2.71v-2.71h2.71v2.71h2.71v-2.71h2.71v2.71h2.71v-2.71h2.71Zm-2.71-8.129H54.194V59.613H56.9v2.71h2.71v-2.71h2.71v2.71h2.71v-2.71h2.71v2.71h2.71v-2.71h2.71v2.71h2.71v-2.71h2.71Zm0,0"/><path d="M272,352h2.71v2.71H272Zm0,0" transform="translate(-225.935 -292.387)"/><path d="M32,352H69.935v2.71H32Zm0,0" transform="translate(-26.581 -292.387)"/><path d="M32,320H75.355v2.71H32Zm0,0" transform="translate(-26.581 -265.806)"/></svg>