<svg xmlns="http://www.w3.org/2000/svg" width="84" height="84" viewBox="0 0 84 84"><defs><style>.a{fill:#4f7ed7;}</style></defs><g transform="translate(-0.002)"><g transform="translate(0.002)"><circle class="a" cx="18.969" cy="18.969" r="18.969" transform="translate(24.388 37.938)"/><path d="M83.007,36.732a4.04,4.04,0,0,0-2.783-1.392l-2.5-.177L47.358,4.8A5.39,5.39,0,0,0,36.651,4.74L7.242,29.971l0-.163h0A4.319,4.319,0,0,0,2.9,33.741L.012,74.37A4.137,4.137,0,0,0,1,77.363a4.057,4.057,0,0,0,2.782,1.412l72.982,5.21c.1.007.2.016.3.016A4.059,4.059,0,0,0,81.1,80.23l2.889-40.545A4.04,4.04,0,0,0,83.007,36.732ZM42,2.71a2.71,2.71,0,1,1-2.71,2.71A2.713,2.713,0,0,1,42,2.71ZM37.187,7.857a5.374,5.374,0,0,0,9.548.148L73.6,34.869,11.07,30.416ZM78.4,80.037a1.354,1.354,0,0,1-1.447,1.254L3.97,76.093a1.354,1.354,0,0,1-1.254-1.447L5.6,34.1a1.358,1.358,0,0,1,1.351-1.259c.033,0,.064,0,.1,0l72.981,5.2a1.354,1.354,0,0,1,1.256,1.447Z" transform="translate(-0.002)"/><rect width="2.71" height="65.041" transform="translate(8.015 38.347) rotate(-85.923)"/><rect width="2.71" height="2.71" transform="translate(75.596 43.161) rotate(-85.923)"/><rect width="2.71" height="65.041" transform="translate(5.512 73.488) rotate(-85.923)"/><rect width="2.71" height="2.71" transform="matrix(0.071, -0.998, 0.998, 0.071, 73.087, 78.296)"/><path d="M51.662,174.161A6.107,6.107,0,0,0,57.74,168.5l.866-12.163a6.1,6.1,0,1,0-12.163-.868l-.867,12.165a6.1,6.1,0,0,0,5.65,6.516C51.371,174.155,51.517,174.161,51.662,174.161Zm-3.383-6.338.867-12.165a3.387,3.387,0,0,1,3.372-3.146c.083,0,.164,0,.247.008a3.385,3.385,0,0,1,3.137,3.619L55.036,168.3a3.387,3.387,0,0,1-6.757-.48Z" transform="translate(-32.391 -106.5)"/><path d="M99.79,154.919l2.7.194a4.064,4.064,0,1,1-.578,8.108l-2.7-.193-.194,2.7,2.7.193a6.774,6.774,0,1,0,.963-13.514l-5.406-.385-1.733,24.326,2.7.194.769-10.812Z" transform="translate(-67.929 -108.082)"/><path d="M159.333,159.16l.194-2.7-10.812-.771-1.733,24.326,10.811.771.194-2.7-8.109-.577.577-8.109,8.109.577.193-2.7-8.109-.577.577-8.109Z" transform="translate(-104.496 -110.684)"/><path d="M208.066,181.65l-.23-.018-2.515-21.912-5.176-.369-1.733,24.326,2.7.194,1.539-21.625.23.016,2.515,21.912,5.176.369,1.733-24.326-2.7-.193Z" transform="translate(-141.061 -113.291)"/></g></g></svg>