<svg xmlns="http://www.w3.org/2000/svg" width="84" height="84" viewBox="0 0 84 84"><defs><style>.a{fill:#4f7ed7;}.b{fill:#fff;}</style></defs><path class="a" d="M286.9,301.806a14.9,14.9,0,1,1,14.9-14.9A14.921,14.921,0,0,1,286.9,301.806Zm0,0" transform="translate(-225.935 -225.935)"/><path class="a" d="M61.806,205.548H32V192H61.806Zm0,0" transform="translate(-26.581 -159.484)"/><path d="M160,370.968h8.129V352H160Zm2.71-16.258h2.71v13.548h-2.71Zm0,0" transform="translate(-132.903 -292.387)"/><path d="M96,424.129h8.129V416H96Zm2.71-5.419h2.71v2.71H98.71Zm0,0" transform="translate(-79.742 -345.548)"/><path d="M96,360.129h8.129V352H96Zm2.71-5.419h2.71v2.71H98.71Zm0,0" transform="translate(-79.742 -292.387)"/><path d="M32,424.129h8.129V416H32Zm2.71-5.419h2.71v2.71H34.71Zm0,0" transform="translate(-26.581 -345.548)"/><path d="M32,360.129h8.129V352H32Zm2.71-5.419h2.71v2.71H34.71Zm0,0" transform="translate(-26.581 -292.387)"/><path d="M96,296.129h8.129V288H96Zm2.71-5.419h2.71v2.71H98.71Zm0,0" transform="translate(-79.742 -239.226)"/><path d="M160,296.129h8.129V288H160Zm2.71-5.419h2.71v2.71h-2.71Zm0,0" transform="translate(-132.903 -239.226)"/><path d="M32,296.129h8.129V288H32Zm2.71-5.419h2.71v2.71H34.71Zm0,0" transform="translate(-26.581 -239.226)"/><path class="b" d="M340.065,309.419a1.357,1.357,0,0,1,1.355,1.355h2.71a4.059,4.059,0,0,0-2.71-3.815V304h-2.71v2.959a4.055,4.055,0,0,0,1.355,7.88,1.355,1.355,0,1,1-1.355,1.355H336a4.059,4.059,0,0,0,2.71,3.815v2.959h2.71v-2.959a4.055,4.055,0,0,0-1.355-7.88,1.355,1.355,0,0,1,0-2.71Zm0,0" transform="translate(-279.097 -252.516)"/><path d="M74.463,13.849A14.886,14.886,0,0,0,46.59,7.675a12.176,12.176,0,0,0-15.509,5.873A12.111,12.111,0,0,0,19.053,27.1H4.065A4.07,4.07,0,0,0,0,31.161V79.935A4.07,4.07,0,0,0,4.065,84H36.581a4.07,4.07,0,0,0,4.065-4.065v-42H71.806a12.189,12.189,0,0,0,2.657-24.086ZM37.935,79.935a1.357,1.357,0,0,1-1.355,1.355H4.065A1.357,1.357,0,0,1,2.71,79.935V31.161a1.357,1.357,0,0,1,1.355-1.355H36.581a1.357,1.357,0,0,1,1.355,1.355Zm33.871-44.71H40.645V31.161A4.07,4.07,0,0,0,36.581,27.1h-14.8a9.437,9.437,0,0,1,9.379-10.839c.2,0,.4.017.684.036l.986.071.367-.919a9.482,9.482,0,0,1,12.3-5.294,14.83,14.83,0,0,0-.79,4.751h2.71a12.191,12.191,0,0,1,24.307-1.351,12.205,12.205,0,0,0-12.114,12.19h2.71a9.484,9.484,0,1,1,9.484,9.484Zm0,0"/><path d="M424,112v2.71a4.065,4.065,0,0,1,0,8.129v2.71A6.774,6.774,0,1,0,424,112Zm0,0" transform="translate(-352.194 -93.032)"/><path d="M305.484,32A9.495,9.495,0,0,0,296,41.484h2.71a6.782,6.782,0,0,1,6.774-6.774Zm0,0" transform="translate(-245.871 -26.581)"/></svg>